<svg width="220" height="51" viewBox="0 0 220 51" fill="none" xmlns="http://www.w3.org/2000/svg">
<path d="M192.083 32.938L205.003 50.5882H220L199.72 23.9707L217.993 0L203.273 0L192.083 14.9909V32.938Z" fill="#00A0E1"/>
<path d="M24.9521 28.3616L12.678 0L8.01086e-05 0L22.495 50.5882H27.5477L49.0851 0L36.5456 0L24.9521 28.3616Z" fill="#000702"/>
<path d="M67.4962 50.5759V0L55.9027 0V50.5759H67.4962Z" fill="#000702"/>
<path d="M110.848 0L99.2659 28.3616L86.9918 0L74.3139 0L96.8088 50.5882H101.85L123.399 0L110.848 0Z" fill="#000702"/>
<path d="M192.314 14.6199L181.182 0L166.185 0L184.862 23.9707L169.162 44.5275L150.785 0L137.288 0L118.335 50.5635H130.597L134.277 39.9016L155.146 39.9016L159.264 50.5759H179.417L192.314 33.3338V14.6199ZM137.415 31.2806L144.233 11.8369L151.731 31.2806H137.415Z" fill="#000702"/>
</svg>
