<svg width="716" height="400" viewBox="0 0 716 400" fill="none" xmlns="http://www.w3.org/2000/svg">
<g opacity="0.8">
<path d="M151.309 0H227.096L378.138 392.528H300.482L269.794 311.674H109.679L77.6558 392.528H0L151.309 0ZM189.736 104.069L137.432 238.826H241.774L189.736 104.069Z" fill="url(#paint0_linear)"/>
<path d="M642.862 102.201H715.447V392.528H642.862V361.841C628.629 375.361 614.308 385.146 599.898 391.194C585.665 397.065 570.187 400 553.464 400C515.926 400 483.458 385.501 456.061 356.504C428.663 327.329 414.965 291.127 414.965 247.899C414.965 203.069 428.219 166.333 454.727 137.692C481.234 109.05 513.435 94.7298 551.329 94.7298C568.764 94.7298 585.131 98.0209 600.431 104.603C615.731 111.185 629.875 121.058 642.862 134.223V102.201ZM566.273 161.975C543.679 161.975 524.91 169.98 509.966 185.991C495.022 201.823 487.55 222.193 487.55 247.098C487.55 272.181 495.111 292.817 510.233 309.006C525.533 325.195 544.302 333.289 566.54 333.289C589.49 333.289 608.526 325.372 623.648 309.54C638.77 293.529 646.331 272.626 646.331 246.831C646.331 221.57 638.77 201.112 623.648 185.457C608.526 169.802 589.401 161.975 566.273 161.975Z" fill="url(#paint1_linear)"/>
</g>
<defs>
<linearGradient id="paint0_linear" x1="715.599" y1="184.333" x2="8.85984e-07" y2="184.333" gradientUnits="userSpaceOnUse">
<stop stop-color="#FAFAFA"/>
<stop offset="0.61326" stop-color="#F9FAFA"/>
<stop offset="1" stop-color="#F5F5F5"/>
</linearGradient>
<linearGradient id="paint1_linear" x1="715.599" y1="184.333" x2="8.85984e-07" y2="184.333" gradientUnits="userSpaceOnUse">
<stop stop-color="#FAFAFA"/>
<stop offset="0.61326" stop-color="#F9FAFA"/>
<stop offset="1" stop-color="#F5F5F5"/>
</linearGradient>
</defs>
</svg>
